<svg id="BG" xmlns="http://www.w3.org/2000/svg" viewBox="0 0 269.992 347.946">
  <defs>
    <style>
      .cls-1 {
        fill: #1a1a1a;
      }

      .cls-1, .cls-2 {
        stroke: #333;
      }

      .cls-1, .cls-2, .cls-3, .cls-4, .cls-5, .cls-6, .cls-7, .cls-8, .cls-9, .cls-10, .cls-11, .cls-12 {
        stroke-miterlimit: 10;
      }

      .cls-1, .cls-2, .cls-5 {
        stroke-width: .995px;
      }

      .cls-2 {
        fill: none;
      }

      .cls-3 {
        stroke-width: .931px;
      }

      .cls-3, .cls-4, .cls-5, .cls-6, .cls-7, .cls-8 {
        fill: #402c21;
      }

      .cls-3, .cls-4, .cls-5, .cls-6, .cls-7, .cls-8, .cls-10, .cls-11, .cls-12 {
        stroke: #000;
      }

      .cls-4 {
        stroke-width: 1.019px;
      }

      .cls-7 {
        stroke-width: .806px;
      }

      .cls-8 {
        stroke-width: 1.057px;
      }

      .cls-9 {
        fill: #b2b2b2;
        stroke: #7c6a52;
        stroke-width: 2.28px;
      }

      .cls-13 {
        fill: #7c6a52;
      }

      .cls-10, .cls-11 {
        fill: #303030;
      }

      .cls-10, .cls-12 {
        stroke-width: .978px;
      }

      .cls-11 {
        stroke-width: .891px;
      }

      .cls-12 {
        fill: #666;
      }
    </style>
  </defs>
  <g>
    <rect class="cls-6" x="41.526" y="206.769" width="48.375" height="115.177"/>
    <rect class="cls-10" x="44.026" y="211.446" width="43" height="22"/>
    <rect class="cls-10" x="44.026" y="236.446" width="43" height="22"/>
    <rect class="cls-10" x="44.026" y="261.446" width="43" height="22"/>
    <rect class="cls-6" x="44.026" y="291.446" width="43" height="20"/>
  </g>
  <g>
    <rect class="cls-6" x="89.526" y="206.769" width="48.375" height="115.177"/>
    <rect class="cls-10" x="92.026" y="211.446" width="43" height="22"/>
    <rect class="cls-10" x="92.026" y="236.446" width="43" height="22"/>
    <rect class="cls-10" x="92.026" y="261.446" width="43" height="22"/>
    <rect class="cls-6" x="92.026" y="291.446" width="43" height="20"/>
  </g>
  <g>
    <rect class="cls-6" x="137.526" y="206.769" width="48.375" height="115.177"/>
    <rect class="cls-10" x="140.026" y="211.446" width="43" height="22"/>
    <rect class="cls-10" x="140.026" y="236.446" width="43" height="22"/>
    <rect class="cls-10" x="140.026" y="261.446" width="43" height="22"/>
    <rect class="cls-6" x="140.026" y="291.446" width="43" height="20"/>
  </g>
  <g>
    <rect class="cls-6" x="185.526" y="206.769" width="48.375" height="115.177"/>
    <rect class="cls-10" x="188.026" y="211.446" width="43" height="22"/>
    <rect class="cls-10" x="188.026" y="236.446" width="43" height="22"/>
    <rect class="cls-10" x="188.026" y="261.446" width="43" height="22"/>
    <rect class="cls-6" x="188.026" y="291.446" width="43" height="20"/>
  </g>
  <rect class="cls-5" x="42.026" y="164.446" width="192" height="42"/>
  <path class="cls-2" d="M28.026,175.446s53,1,61,1,94.694-.5,94.694-.5c0,0,31.306-1.5,40.306-1.5s24-5,24-5l-220,6Z"/>
  <polygon class="cls-1" points="51.026 178.446 29.289 176.446 27.026 205.446 50.026 207.446 51.026 178.446"/>
  <polygon class="cls-1" points="93.66 179.346 71.832 179.463 72.391 208.546 95.477 208.306 93.66 179.346"/>
  <polygon class="cls-1" points="180.66 179.346 158.832 179.463 159.391 208.546 182.477 208.306 180.66 179.346"/>
  <polygon class="cls-1" points="202.66 179.346 180.832 179.463 181.391 208.546 204.477 208.306 202.66 179.346"/>
  <polygon class="cls-1" points="158.026 179.446 115.832 179.463 116.391 208.546 158.026 209.446 158.026 179.446"/>
  <polygon class="cls-1" points="52.026 178.446 73.026 179.446 72.026 197.446 51.026 196.446 52.026 178.446"/>
  <polygon class="cls-1" points="94.525 179.002 115.549 178.862 115.526 196.89 94.502 197.029 94.525 179.002"/>
  <polygon class="cls-1" points="223.026 177.446 202.66 179.346 205.939 209.446 224.026 207.446 223.026 177.446"/>
  <polygon class="cls-1" points="246.026 172.446 223.026 177.446 225.026 199.446 245.628 199.446 246.026 172.446"/>
  <polygon class="cls-6" points="34.026 347.446 14.614 347.446 18.026 324.446 31.575 324.446 34.026 347.446"/>
  <rect class="cls-8" x="18.026" y="163.446" width="13" height="161"/>
  <polygon class="cls-6" points="258.026 347.446 238.614 347.446 242.026 324.446 255.575 324.446 258.026 347.446"/>
  <rect class="cls-8" x="242.026" y="163.446" width="13" height="161"/>
  <rect class="cls-9" x="17.526" y="180.946" width="13" height="47"/>
  <rect class="cls-13" x="19.526" y="167.946" width="8" height="11"/>
  <rect class="cls-13" x="50.526" y="167.946" width="8" height="11"/>
  <rect class="cls-13" x="73.526" y="167.946" width="8" height="11"/>
  <rect class="cls-13" x="101.526" y="167.946" width="8" height="11"/>
  <rect class="cls-13" x="130.526" y="167.946" width="8" height="11"/>
  <rect class="cls-13" x="159.526" y="167.946" width="8" height="11"/>
  <rect class="cls-13" x="188.526" y="167.946" width="8" height="11"/>
  <rect class="cls-13" x="218.526" y="167.946" width="8" height="11"/>
  <rect class="cls-13" x="244.526" y="167.946" width="8" height="11"/>
  <rect class="cls-10" x="1.026" y="157.446" width="268" height="6"/>
  <polygon class="cls-10" points="31.026 120.446 1.026 157.446 269.026 157.446 242.026 120.783 31.026 120.446"/>
  <rect class="cls-6" x="189.026" y="43.446" width="53" height="77"/>
  <rect class="cls-4" x="31.026" y="43.446" width="55" height="77"/>
  <rect class="cls-12" x="86.026" y="69.446" width="103" height="51"/>
  <rect class="cls-3" x="185.026" y="43.446" width="4" height="26"/>
  <rect class="cls-3" x="181.026" y="43.446" width="4" height="26"/>
  <rect class="cls-3" x="177.026" y="43.446" width="4" height="26"/>
  <rect class="cls-3" x="173.026" y="43.446" width="4" height="26"/>
  <rect class="cls-3" x="169.026" y="43.446" width="4" height="26"/>
  <rect class="cls-3" x="165.026" y="43.446" width="4" height="26"/>
  <rect class="cls-3" x="161.026" y="43.446" width="4" height="26"/>
  <rect class="cls-3" x="157.026" y="43.446" width="4" height="26"/>
  <rect class="cls-3" x="153.026" y="43.446" width="4" height="26"/>
  <rect class="cls-3" x="149.026" y="43.446" width="4" height="26"/>
  <rect class="cls-3" x="145.026" y="43.446" width="4" height="26"/>
  <rect class="cls-3" x="141.026" y="43.446" width="4" height="26"/>
  <rect class="cls-3" x="137.026" y="43.446" width="4" height="26"/>
  <rect class="cls-3" x="133.026" y="43.446" width="4" height="26"/>
  <rect class="cls-3" x="129.026" y="43.446" width="4" height="26"/>
  <rect class="cls-3" x="125.026" y="43.446" width="4" height="26"/>
  <rect class="cls-3" x="121.026" y="43.446" width="4" height="26"/>
  <rect class="cls-3" x="117.026" y="43.446" width="4" height="26"/>
  <rect class="cls-3" x="113.026" y="43.446" width="4" height="26"/>
  <rect class="cls-3" x="109.026" y="43.446" width="4" height="26"/>
  <rect class="cls-3" x="105.026" y="43.446" width="4" height="26"/>
  <rect class="cls-3" x="101.026" y="43.446" width="4" height="26"/>
  <rect class="cls-3" x="97.026" y="43.446" width="4" height="26"/>
  <rect class="cls-3" x="93.026" y="43.446" width="4" height="26"/>
  <rect class="cls-3" x="89.026" y="43.446" width="4" height="26"/>
  <rect class="cls-7" x="86.026" y="43.446" width="3" height="26"/>
  <rect class="cls-13" x="33.952" y="47.916" width="7.294" height="10.029"/>
  <rect class="cls-13" x="62.217" y="47.916" width="7.294" height="10.029"/>
  <rect class="cls-13" x="83.187" y="47.916" width="7.294" height="10.029"/>
  <rect class="cls-13" x="108.716" y="47.916" width="7.294" height="10.029"/>
  <rect class="cls-13" x="135.157" y="47.916" width="7.294" height="10.029"/>
  <rect class="cls-13" x="161.598" y="47.916" width="7.294" height="10.029"/>
  <rect class="cls-13" x="188.039" y="47.916" width="7.294" height="10.029"/>
  <rect class="cls-13" x="215.391" y="47.916" width="7.294" height="10.029"/>
  <rect class="cls-13" x="239.097" y="47.916" width="7.294" height="10.029"/>
  <rect class="cls-11" x="17.085" y="38.343" width="244.35" height="5.471"/>
  <polygon class="cls-11" points="57.026 .446 17.085 38.343 261.435 38.343 210.026 .446 57.026 .446"/>
  <polygon class="cls-11" points="40.026 317.446 31.922 327.705 34.026 347.446 238.614 347.446 242.026 325.836 233.9 314.642 233.9 321.946 41.526 321.946 41.526 315.49 40.026 317.446"/>
</svg>