<svg width="135" height="104" viewBox="0 0 135 104" fill="none" xmlns="http://www.w3.org/2000/svg">
<g clip-path="url(#clip0_1_2269)">
<path d="M68.15 101.65C96.1122 101.65 118.78 78.9822 118.78 51.02C118.78 23.0578 96.1122 0.389999 68.15 0.389999C40.1878 0.389999 17.52 23.0578 17.52 51.02C17.52 78.9822 40.1878 101.65 68.15 101.65Z" fill="#54A4DB" stroke="#231F20" stroke-width="0.78" stroke-miterlimit="10"/>
<path d="M66.2599 53.89C50.2799 54.31 23.5299 62.66 19.6799 63.89C25.4599 85.49 45.1699 101.39 68.5899 101.39C93.7699 101.39 114.65 83.01 118.56 58.93C115.56 58.47 82.7099 53.46 66.2599 53.89Z" fill="#91B75D" stroke="#231F20" stroke-width="0.78" stroke-miterlimit="10"/>
<path d="M115.69 48.14C115.89 47.62 116 47.07 116 46.48C116 43.92 113.92 41.84 111.36 41.84C108.8 41.84 106.72 43.92 106.72 46.48C106.72 46.75 106.75 47.01 106.79 47.27C105.14 47.77 103.93 49.3 103.93 51.12C103.93 53.34 105.73 55.14 107.95 55.14C109.21 55.14 110.33 54.56 111.07 53.65C111.69 55.07 113.11 56.06 114.75 56.06C116.97 56.06 118.77 54.26 118.77 52.04C118.77 50.14 117.45 48.55 115.68 48.13L115.69 48.14Z" fill="#35361A" stroke="#010101" stroke-width="0.41" stroke-miterlimit="10"/>
<path d="M108.55 63.49C108.55 63.49 110.72 59.16 110.41 56.69C110.1 54.22 108.86 51.74 108.86 51.74L110.44 52.38V51.12L111.34 52.05L112.96 51.12L112.58 52.67L114.13 52.36C114.13 52.36 112.58 53.6 112.58 57C112.58 60.4 113.85 63.5 113.85 63.5H108.56L108.55 63.49Z" fill="#5F4021" stroke="#010101" stroke-width="0.41" stroke-miterlimit="10"/>
<path d="M91.1501 28.23H84.8201V60.27H91.1501V28.23Z" fill="#A17456" stroke="#010101" stroke-width="0.08" stroke-miterlimit="10"/>
<path d="M84.8201 28.23C84.8201 26.81 84.9601 24.99 85.4701 22.93C86.1201 20.3 87.1401 18.25 87.9901 16.84C88.8101 18.35 89.7401 20.4 90.3801 22.93C90.8901 24.94 91.0901 26.75 91.1601 28.23H84.8301H84.8201Z" fill="#4E4E4E" stroke="#010101" stroke-width="0.08" stroke-miterlimit="10"/>
<path d="M84.82 28.23L84.5 28.81H91.44L91.15 28.23H84.82Z" fill="#4E4E4E" stroke="#010101" stroke-width="0.08" stroke-miterlimit="10"/>
<path d="M88.25 16.54H87.73V17.06H88.25V16.54Z" fill="#4E4E4E" stroke="#010101" stroke-width="0.08" stroke-miterlimit="10"/>
<path d="M87.98 16.54V14.76" stroke="#010101" stroke-width="0.08" stroke-miterlimit="10"/>
<path d="M91.1501 28.87H84.8201V32.36H91.1501V28.87Z" fill="#A17456" stroke="#010101" stroke-width="0.08" stroke-miterlimit="10"/>
<path d="M89.47 29.13H86.5V32.1H89.47V29.13Z" fill="#4E4E4E"/>
<path d="M90.05 29.13H89.73V32.1H90.05V29.13Z" fill="#4E4E4E" stroke="#010101" stroke-width="0.08" stroke-miterlimit="10"/>
<path d="M86.3 29.13H85.98V32.1H86.3V29.13Z" fill="#4E4E4E" stroke="#010101" stroke-width="0.08" stroke-miterlimit="10"/>
<path d="M89.0202 36.69H86.9502V53.1H89.0202V36.69Z" fill="#A17456" stroke="#010101" stroke-width="0.08" stroke-miterlimit="10"/>
<path d="M88.25 33.72H87.73V36.17H88.25V33.72Z" fill="#A43728" stroke="#010101" stroke-width="0.08" stroke-miterlimit="10"/>
<path d="M87.7302 36.69H86.9502V37.21H87.7302V36.69Z" fill="#100E0E" stroke="#010101" stroke-width="0.08" stroke-miterlimit="10"/>
<path d="M87.7302 37.2H86.9502V37.46H87.7302V37.2Z" fill="#A43728" stroke="#010101" stroke-width="0.08" stroke-miterlimit="10"/>
<path d="M87.7302 37.59H86.9502V38.11H87.7302V37.59Z" fill="#100E0E" stroke="#010101" stroke-width="0.08" stroke-miterlimit="10"/>
<path d="M87.7302 38.11H86.9502V38.37H87.7302V38.11Z" fill="#A43728" stroke="#010101" stroke-width="0.08" stroke-miterlimit="10"/>
<path d="M87.7302 38.49H86.9502V39.01H87.7302V38.49Z" fill="#100E0E" stroke="#010101" stroke-width="0.08" stroke-miterlimit="10"/>
<path d="M87.7302 39.01H86.9502V39.27H87.7302V39.01Z" fill="#A43728" stroke="#010101" stroke-width="0.08" stroke-miterlimit="10"/>
<path d="M87.7302 39.4H86.9502V39.92H87.7302V39.4Z" fill="#100E0E" stroke="#010101" stroke-width="0.08" stroke-miterlimit="10"/>
<path d="M87.7302 39.92H86.9502V40.18H87.7302V39.92Z" fill="#A43728" stroke="#010101" stroke-width="0.08" stroke-miterlimit="10"/>
<path d="M89.02 36.69H88.24V37.21H89.02V36.69Z" fill="#100E0E" stroke="#010101" stroke-width="0.08" stroke-miterlimit="10"/>
<path d="M89.02 37.2H88.24V37.46H89.02V37.2Z" fill="#A43728" stroke="#010101" stroke-width="0.08" stroke-miterlimit="10"/>
<path d="M89.02 37.59H88.24V38.11H89.02V37.59Z" fill="#100E0E" stroke="#010101" stroke-width="0.08" stroke-miterlimit="10"/>
<path d="M89.02 38.11H88.24V38.37H89.02V38.11Z" fill="#A43728" stroke="#010101" stroke-width="0.08" stroke-miterlimit="10"/>
<path d="M89.02 38.49H88.24V39.01H89.02V38.49Z" fill="#100E0E" stroke="#010101" stroke-width="0.08" stroke-miterlimit="10"/>
<path d="M89.02 39.01H88.24V39.27H89.02V39.01Z" fill="#A43728" stroke="#010101" stroke-width="0.08" stroke-miterlimit="10"/>
<path d="M89.02 39.4H88.24V39.92H89.02V39.4Z" fill="#100E0E" stroke="#010101" stroke-width="0.08" stroke-miterlimit="10"/>
<path d="M89.02 39.92H88.24V40.18H89.02V39.92Z" fill="#A43728" stroke="#010101" stroke-width="0.08" stroke-miterlimit="10"/>
<path d="M78.8401 38.11L84.8801 42.76L84.8201 60.26H66.0901V44.89L78.8401 38.11Z" fill="#835E45" stroke="#010101" stroke-width="0.08" stroke-miterlimit="10"/>
<path d="M71.06 48.44L78.68 40.69L84.88 48.39V60.26L70.8 60.33L71.06 48.44Z" fill="#A17456" stroke="#010101" stroke-width="0.08" stroke-miterlimit="10"/>
<path d="M88.0001 32C88.7623 32 89.3801 31.3822 89.3801 30.62C89.3801 29.8579 88.7623 29.24 88.0001 29.24C87.238 29.24 86.6201 29.8579 86.6201 30.62C86.6201 31.3822 87.238 32 88.0001 32Z" fill="#333333"/>
<path d="M88.1001 29.36V29.77" stroke="#CCA648" stroke-width="0.02" stroke-miterlimit="10"/>
<path d="M88.7501 29.55L88.5601 29.81" stroke="#CCA648" stroke-width="0.02" stroke-miterlimit="10"/>
<path d="M89.1601 29.98L88.8801 30.11" stroke="#CCA648" stroke-width="0.02" stroke-miterlimit="10"/>
<path d="M89.3802 30.67H88.9702" stroke="#CCA648" stroke-width="0.02" stroke-miterlimit="10"/>
<path d="M89.1802 31.32L88.9202 31.13" stroke="#CCA648" stroke-width="0.02" stroke-miterlimit="10"/>
<path d="M88.7501 31.74L88.6201 31.45" stroke="#CCA648" stroke-width="0.02" stroke-miterlimit="10"/>
<path d="M88.0601 31.95V31.54" stroke="#CCA648" stroke-width="0.02" stroke-miterlimit="10"/>
<path d="M87.4202 31.75L87.6002 31.5" stroke="#CCA648" stroke-width="0.02" stroke-miterlimit="10"/>
<path d="M87 31.32L87.29 31.19" stroke="#CCA648" stroke-width="0.02" stroke-miterlimit="10"/>
<path d="M86.79 30.64H87.19" stroke="#CCA648" stroke-width="0.02" stroke-miterlimit="10"/>
<path d="M86.98 29.99L87.24 30.17" stroke="#CCA648" stroke-width="0.02" stroke-miterlimit="10"/>
<path d="M87.4102 29.57L87.5402 29.86" stroke="#CCA648" stroke-width="0.02" stroke-miterlimit="10"/>
<path d="M88 29.63V30.71" stroke="#CCA648" stroke-width="0.04" stroke-miterlimit="10"/>
<path d="M88.0502 30.68L87.6602 31.17" stroke="#CCA648" stroke-width="0.04" stroke-miterlimit="10"/>
<path d="M79.8 48.28V52.44H80.8V49.57C80.48 49.12 80.14 48.68 79.8 48.28Z" fill="#7CA1AF" stroke="#E6E6E5" stroke-width="0.06" stroke-miterlimit="10"/>
<path d="M82.5902 52.44C82.5902 52.44 82.0202 51.39 81.2302 50.19V52.44H82.5902Z" fill="#7CA1AF" stroke="#E6E6E5" stroke-width="0.06" stroke-miterlimit="10"/>
<path d="M78.3601 47.03V52.44H79.3601V47.82C79.0201 47.48 78.6801 47.2 78.3601 47.03Z" fill="#7CA1AF" stroke="#E6E6E5" stroke-width="0.06" stroke-miterlimit="10"/>
<path d="M76.3601 48.28V52.44H75.3601V49.57C75.6801 49.12 76.0201 48.68 76.3601 48.28Z" fill="#7CA1AF" stroke="#E6E6E5" stroke-width="0.06" stroke-miterlimit="10"/>
<path d="M73.5601 52.44C73.5601 52.44 74.1301 51.39 74.9201 50.19V52.44H73.5601Z" fill="#7CA1AF" stroke="#E6E6E5" stroke-width="0.06" stroke-miterlimit="10"/>
<path d="M77.79 47.03V52.44H76.79V47.82C77.13 47.48 77.47 47.2 77.79 47.03Z" fill="#7CA1AF" stroke="#E6E6E5" stroke-width="0.06" stroke-miterlimit="10"/>
<path d="M76.27 56.13C76.27 56.13 77.56 55.1 78.03 55.1C78.5 55.1 79.79 56.13 79.79 56.13H76.27Z" fill="#7CA1AF" stroke="#E6E6E5" stroke-width="0.06" stroke-linejoin="bevel"/>
<path d="M77.99 56.13H76.27V60.24H77.99V56.13Z" fill="#A95950" stroke="#E6E6E5" stroke-width="0.04" stroke-miterlimit="10"/>
<path d="M79.71 56.13H77.99V60.24H79.71V56.13Z" fill="#A95950" stroke="#E6E6E5" stroke-width="0.04" stroke-miterlimit="10"/>
<path d="M79.64 59.79H76.27V60.23H79.64V59.79Z" fill="#4B4240" stroke="#010101" stroke-width="0.02" stroke-miterlimit="10"/>
<path d="M78.77 56.49H78.25V57.01H78.77V56.49Z" fill="#4B4240" stroke="#010101" stroke-width="0.02" stroke-miterlimit="10"/>
<path d="M79.4199 56.49H78.8999V57.01H79.4199V56.49Z" fill="#4B4240" stroke="#010101" stroke-width="0.02" stroke-miterlimit="10"/>
<path d="M79.4199 57.15H78.8999V57.67H79.4199V57.15Z" fill="#4B4240" stroke="#010101" stroke-width="0.02" stroke-miterlimit="10"/>
<path d="M78.77 57.15H78.25V57.67H78.77V57.15Z" fill="#4B4240" stroke="#010101" stroke-width="0.02" stroke-miterlimit="10"/>
<path d="M77.01 56.49H76.49V57.01H77.01V56.49Z" fill="#4B4240" stroke="#010101" stroke-width="0.02" stroke-miterlimit="10"/>
<path d="M77.6601 56.49H77.1401V57.01H77.6601V56.49Z" fill="#4B4240" stroke="#010101" stroke-width="0.02" stroke-miterlimit="10"/>
<path d="M77.6601 57.15H77.1401V57.67H77.6601V57.15Z" fill="#4B4240" stroke="#010101" stroke-width="0.02" stroke-miterlimit="10"/>
<path d="M77.01 57.15H76.49V57.67H77.01V57.15Z" fill="#4B4240" stroke="#010101" stroke-width="0.02" stroke-miterlimit="10"/>
<path d="M82.21 56.13H80.49V60.24H82.21V56.13Z" fill="#A95950" stroke="#E6E6E5" stroke-width="0.04" stroke-miterlimit="10"/>
<path d="M83.93 56.13H82.21V60.24H83.93V56.13Z" fill="#A95950" stroke="#E6E6E5" stroke-width="0.04" stroke-miterlimit="10"/>
<path d="M83.86 59.79H80.49V60.23H83.86V59.79Z" fill="#4B4240" stroke="#010101" stroke-width="0.02" stroke-miterlimit="10"/>
<path d="M82.99 56.49H82.47V57.01H82.99V56.49Z" fill="#4B4240" stroke="#010101" stroke-width="0.02" stroke-miterlimit="10"/>
<path d="M83.6401 56.49H83.1201V57.01H83.6401V56.49Z" fill="#4B4240" stroke="#010101" stroke-width="0.02" stroke-miterlimit="10"/>
<path d="M83.6401 57.15H83.1201V57.67H83.6401V57.15Z" fill="#4B4240" stroke="#010101" stroke-width="0.02" stroke-miterlimit="10"/>
<path d="M82.99 57.15H82.47V57.67H82.99V57.15Z" fill="#4B4240" stroke="#010101" stroke-width="0.02" stroke-miterlimit="10"/>
<path d="M81.23 56.49H80.71V57.01H81.23V56.49Z" fill="#4B4240" stroke="#010101" stroke-width="0.02" stroke-miterlimit="10"/>
<path d="M81.8801 56.49H81.3601V57.01H81.8801V56.49Z" fill="#4B4240" stroke="#010101" stroke-width="0.02" stroke-miterlimit="10"/>
<path d="M81.8801 57.15H81.3601V57.67H81.8801V57.15Z" fill="#4B4240" stroke="#010101" stroke-width="0.02" stroke-miterlimit="10"/>
<path d="M81.23 57.15H80.71V57.67H81.23V57.15Z" fill="#4B4240" stroke="#010101" stroke-width="0.02" stroke-miterlimit="10"/>
<path d="M73.77 56.13H72.05V60.24H73.77V56.13Z" fill="#A95950" stroke="#E6E6E5" stroke-width="0.04" stroke-miterlimit="10"/>
<path d="M75.49 56.13H73.77V60.24H75.49V56.13Z" fill="#A95950" stroke="#E6E6E5" stroke-width="0.04" stroke-miterlimit="10"/>
<path d="M75.42 59.79H72.05V60.23H75.42V59.79Z" fill="#4B4240" stroke="#010101" stroke-width="0.02" stroke-miterlimit="10"/>
<path d="M74.55 56.49H74.03V57.01H74.55V56.49Z" fill="#4B4240" stroke="#010101" stroke-width="0.02" stroke-miterlimit="10"/>
<path d="M75.1999 56.49H74.6799V57.01H75.1999V56.49Z" fill="#4B4240" stroke="#010101" stroke-width="0.02" stroke-miterlimit="10"/>
<path d="M75.1999 57.15H74.6799V57.67H75.1999V57.15Z" fill="#4B4240" stroke="#010101" stroke-width="0.02" stroke-miterlimit="10"/>
<path d="M74.55 57.15H74.03V57.67H74.55V57.15Z" fill="#4B4240" stroke="#010101" stroke-width="0.02" stroke-miterlimit="10"/>
<path d="M72.79 56.49H72.27V57.01H72.79V56.49Z" fill="#4B4240" stroke="#010101" stroke-width="0.02" stroke-miterlimit="10"/>
<path d="M73.4399 56.49H72.9199V57.01H73.4399V56.49Z" fill="#4B4240" stroke="#010101" stroke-width="0.02" stroke-miterlimit="10"/>
<path d="M73.4399 57.15H72.9199V57.67H73.4399V57.15Z" fill="#4B4240" stroke="#010101" stroke-width="0.02" stroke-miterlimit="10"/>
<path d="M72.79 57.15H72.27V57.67H72.79V57.15Z" fill="#4B4240" stroke="#010101" stroke-width="0.02" stroke-miterlimit="10"/>
<path d="M105.99 48.04C106.24 47.38 106.39 46.67 106.39 45.93C106.39 42.67 103.74 40.02 100.48 40.02C97.22 40.02 94.57 42.67 94.57 45.93C94.57 46.27 94.61 46.61 94.66 46.94C92.55 47.58 91.02 49.53 91.02 51.84C91.02 54.67 93.31 56.96 96.14 56.96C97.74 56.96 99.18 56.22 100.12 55.07C100.91 56.88 102.71 58.15 104.81 58.15C107.64 58.15 109.93 55.86 109.93 53.03C109.93 50.61 108.25 48.58 105.99 48.05V48.04Z" fill="#5E632A" stroke="#010101" stroke-width="0.52" stroke-miterlimit="10"/>
<path d="M96.8901 67.6C96.8901 67.6 99.6501 62.08 99.2501 58.93C98.8501 55.78 97.2801 52.62 97.2801 52.62L99.2901 53.43V51.83L100.43 53.02L102.49 51.83L102 53.8L103.97 53.41C103.97 53.41 102 54.99 102 59.32C102 63.65 103.62 67.6 103.62 67.6H96.8701H96.8901Z" fill="#9D6427" stroke="#010101" stroke-width="0.52" stroke-miterlimit="10"/>
<path d="M82.0599 56.56H80.3999V67.88H82.0599V56.56Z" fill="#9D6427" stroke="#010101" stroke-width="0.44" stroke-miterlimit="10"/>
<path d="M100.28 56.56H98.6199V67.88H100.28V56.56Z" fill="#9D6427" stroke="#010101" stroke-width="0.44" stroke-miterlimit="10"/>
<path d="M102.83 56.68H77.4199V58.89H102.83V56.68Z" fill="#9D6427" stroke="#010101" stroke-width="0.44" stroke-miterlimit="10"/>
<path d="M102.83 58.89H77.4199V61.1H102.83V58.89Z" fill="#9D6427" stroke="#010101" stroke-width="0.44" stroke-miterlimit="10"/>
<path d="M102.83 62.75H77.4199V63.85H102.83V62.75Z" fill="#9D6427" stroke="#010101" stroke-width="0.44" stroke-miterlimit="10"/>
<path d="M55.3299 57.78H48.8799V60.66H55.3299V57.78Z" fill="#1B222B" stroke="#010101" stroke-width="0.07" stroke-miterlimit="10"/>
<path d="M55.3299 56.51H48.8799V57.89H55.3299V56.51Z" fill="#B5B6B6" stroke="#010101" stroke-width="0.07" stroke-miterlimit="10"/>
<path d="M53.9499 53.63H50.3799L48.8799 55.13V56.74H55.3299V55.13L53.9499 53.63Z" fill="#1B222B" stroke="#010101" stroke-width="0.07" stroke-miterlimit="10"/>
<path d="M50.0301 53.9C50.0301 53.9 49.9101 53.78 50.3801 53.78C50.8501 53.78 51.0701 54.01 51.0701 54.01C51.0701 54.01 51.5301 54.36 52.1101 54.36C52.6901 54.36 53.6101 53.9 53.6101 53.9C53.6101 53.9 53.8401 53.67 54.0701 53.67C54.3001 53.67 54.5301 53.9 54.5301 53.9V46.06L50.0201 45.88V53.9H50.0301Z" fill="#FFF2D8" stroke="#010101" stroke-width="0.07" stroke-miterlimit="10"/>
<path d="M50.26 53.44C50.26 53.44 50.46 53.32 50.95 53.56C51.44 53.8 51.76 53.91 51.76 53.91C51.76 53.91 51.99 54.03 52.34 54.03C52.69 54.03 53.46 53.69 53.46 53.69C53.46 53.69 53.73 53.45 53.96 53.45H54.31V46.07L50.28 45.95V53.44H50.26Z" fill="#FBBC38" stroke="#010101" stroke-width="0.07" stroke-miterlimit="10"/>
<path d="M49.71 45.95L50.26 44.86L54.53 45.03L54.99 46.07L49.71 45.95Z" fill="#FBBC38" stroke="#010101" stroke-width="0.07" stroke-miterlimit="10"/>
<path d="M54.53 45.03C54.53 45.03 54.2 44.2 53.97 43.74C53.74 43.28 52.36 42.13 52.36 42.13V42.15C52.36 42.15 50.96 43.3 50.73 43.76C50.5 44.22 50.27 44.86 50.27 44.86L52.36 44.95V44.92L54.54 45.03H54.53Z" fill="#505052" stroke="#010101" stroke-width="0.05" stroke-miterlimit="10"/>
<path d="M52.91 43.53H52.45L52.22 43.79V44.22V44.65L52.45 44.91H52.91L53.14 44.65V44.22V43.79L52.91 43.53Z" fill="#E53F39"/>
<path d="M52.8201 44.29L53.0501 44.23L52.8201 44.18L52.9401 43.98L52.7501 44.1L52.6901 43.88L52.6401 44.1L52.4401 43.98L52.5601 44.18L52.3401 44.23L52.5601 44.29L52.4401 44.48L52.6401 44.36L52.6901 44.59L52.7501 44.36L52.9401 44.48L52.8201 44.29Z" fill="white"/>
<path d="M66.3999 43.99H53.1399V44.37H66.3999V43.99Z" fill="#1A1A1A"/>
<path d="M66.5099 43.64V43.41L53.1399 43.79V43.99L66.5099 43.64Z" fill="#B5B6B6"/>
<path d="M66.51 43.64L66.63 45.14" stroke="#010101" stroke-width="0.03" stroke-miterlimit="10"/>
<path d="M66.0498 43.64L66.1698 45.14" stroke="#010101" stroke-width="0.03" stroke-miterlimit="10"/>
<path d="M65.5898 43.64L65.7098 45.14" stroke="#010101" stroke-width="0.03" stroke-miterlimit="10"/>
<path d="M65.1299 43.64L65.2399 45.14" stroke="#010101" stroke-width="0.03" stroke-miterlimit="10"/>
<path d="M64.6699 43.64L64.7799 45.14" stroke="#010101" stroke-width="0.03" stroke-miterlimit="10"/>
<path d="M64.21 43.64L64.32 45.14" stroke="#010101" stroke-width="0.03" stroke-miterlimit="10"/>
<path d="M63.75 43.64L63.86 45.14" stroke="#010101" stroke-width="0.03" stroke-miterlimit="10"/>
<path d="M63.2898 43.64L63.3998 45.14" stroke="#010101" stroke-width="0.03" stroke-miterlimit="10"/>
<path d="M62.8198 43.64L62.9398 45.14" stroke="#010101" stroke-width="0.03" stroke-miterlimit="10"/>
<path d="M62.3599 43.64L62.4799 45.14" stroke="#010101" stroke-width="0.03" stroke-miterlimit="10"/>
<path d="M61.8999 43.64L62.0199 45.14" stroke="#010101" stroke-width="0.03" stroke-miterlimit="10"/>
<path d="M61.4399 43.64L61.5599 45.14" stroke="#010101" stroke-width="0.03" stroke-miterlimit="10"/>
<path d="M60.98 43.76L61.1 45.26" stroke="#010101" stroke-width="0.03" stroke-miterlimit="10"/>
<path d="M60.5198 43.76L60.6298 45.26" stroke="#010101" stroke-width="0.03" stroke-miterlimit="10"/>
<path d="M60.0598 43.76L60.1698 45.26" stroke="#010101" stroke-width="0.03" stroke-miterlimit="10"/>
<path d="M59.5999 43.76L59.7099 45.26" stroke="#010101" stroke-width="0.03" stroke-miterlimit="10"/>
<path d="M59.1399 43.76L59.2499 45.26" stroke="#010101" stroke-width="0.03" stroke-miterlimit="10"/>
<path d="M58.6699 43.76L58.7899 45.26" stroke="#010101" stroke-width="0.03" stroke-miterlimit="10"/>
<path d="M58.21 43.76L58.33 45.26" stroke="#010101" stroke-width="0.03" stroke-miterlimit="10"/>
<path d="M57.75 43.76L57.87 45.26" stroke="#010101" stroke-width="0.03" stroke-miterlimit="10"/>
<path d="M57.2898 43.76L57.4098 45.26" stroke="#010101" stroke-width="0.03" stroke-miterlimit="10"/>
<path d="M56.8298 43.76L56.9498 45.26" stroke="#010101" stroke-width="0.03" stroke-miterlimit="10"/>
<path d="M56.3699 43.76L56.4799 45.26" stroke="#010101" stroke-width="0.03" stroke-miterlimit="10"/>
<path d="M55.9099 43.76L56.0199 45.26" stroke="#010101" stroke-width="0.03" stroke-miterlimit="10"/>
<path d="M55.45 43.76L55.56 45.26" stroke="#010101" stroke-width="0.03" stroke-miterlimit="10"/>
<path d="M54.99 43.76L55.1 45.26" stroke="#010101" stroke-width="0.03" stroke-miterlimit="10"/>
<path d="M54.5298 43.76L54.6398 45.26" stroke="#010101" stroke-width="0.03" stroke-miterlimit="10"/>
<path d="M54.0598 43.76L54.1798 45.26" stroke="#010101" stroke-width="0.03" stroke-miterlimit="10"/>
<path d="M53.5999 43.76L53.7199 45.26" stroke="#010101" stroke-width="0.03" stroke-miterlimit="10"/>
<path d="M53.1399 43.76L53.2599 45.26" stroke="#010101" stroke-width="0.03" stroke-miterlimit="10"/>
<path d="M66.5099 43.99L53.1399 44.22" stroke="#010101" stroke-width="0.03" stroke-miterlimit="10"/>
<path d="M66.6299 44.51L53.1399 44.74" stroke="#010101" stroke-width="0.03" stroke-miterlimit="10"/>
<path d="M53.0001 30.33H52.6201V43.59H53.0001V30.33Z" fill="#1A1A1A"/>
<path d="M52.28 30.22H52.05L52.42 43.59H52.62L52.28 30.22Z" fill="#B5B6B6"/>
<path d="M52.28 30.22L53.78 30.1" stroke="#010101" stroke-width="0.03" stroke-miterlimit="10"/>
<path d="M52.28 30.68L53.78 30.56" stroke="#010101" stroke-width="0.03" stroke-miterlimit="10"/>
<path d="M52.28 31.14L53.78 31.02" stroke="#010101" stroke-width="0.03" stroke-miterlimit="10"/>
<path d="M52.28 31.6L53.78 31.48" stroke="#010101" stroke-width="0.03" stroke-miterlimit="10"/>
<path d="M52.28 32.06L53.78 31.95" stroke="#010101" stroke-width="0.03" stroke-miterlimit="10"/>
<path d="M52.28 32.52L53.78 32.41" stroke="#010101" stroke-width="0.03" stroke-miterlimit="10"/>
<path d="M52.28 32.98L53.78 32.87" stroke="#010101" stroke-width="0.03" stroke-miterlimit="10"/>
<path d="M52.28 33.44L53.78 33.33" stroke="#010101" stroke-width="0.03" stroke-miterlimit="10"/>
<path d="M52.28 33.9L53.78 33.79" stroke="#010101" stroke-width="0.03" stroke-miterlimit="10"/>
<path d="M52.28 34.37L53.78 34.25" stroke="#010101" stroke-width="0.03" stroke-miterlimit="10"/>
<path d="M52.28 34.83L53.78 34.71" stroke="#010101" stroke-width="0.03" stroke-miterlimit="10"/>
<path d="M52.28 35.29L53.78 35.17" stroke="#010101" stroke-width="0.03" stroke-miterlimit="10"/>
<path d="M52.3901 35.75L53.8901 35.63" stroke="#010101" stroke-width="0.03" stroke-miterlimit="10"/>
<path d="M52.3901 36.21L53.8901 36.09" stroke="#010101" stroke-width="0.03" stroke-miterlimit="10"/>
<path d="M52.3901 36.67L53.8901 36.56" stroke="#010101" stroke-width="0.03" stroke-miterlimit="10"/>
<path d="M52.3901 37.13L53.8901 37.02" stroke="#010101" stroke-width="0.03" stroke-miterlimit="10"/>
<path d="M52.3901 37.59L53.8901 37.48" stroke="#010101" stroke-width="0.03" stroke-miterlimit="10"/>
<path d="M52.3901 38.05L53.8901 37.94" stroke="#010101" stroke-width="0.03" stroke-miterlimit="10"/>
<path d="M52.3901 38.52L53.8901 38.4" stroke="#010101" stroke-width="0.03" stroke-miterlimit="10"/>
<path d="M52.3901 38.98L53.8901 38.86" stroke="#010101" stroke-width="0.03" stroke-miterlimit="10"/>
<path d="M52.3901 39.44L53.8901 39.32" stroke="#010101" stroke-width="0.03" stroke-miterlimit="10"/>
<path d="M52.3901 39.9L53.8901 39.78" stroke="#010101" stroke-width="0.03" stroke-miterlimit="10"/>
<path d="M52.3901 40.36L53.8901 40.24" stroke="#010101" stroke-width="0.03" stroke-miterlimit="10"/>
<path d="M52.3901 40.82L53.8901 40.71" stroke="#010101" stroke-width="0.03" stroke-miterlimit="10"/>
<path d="M52.3901 41.28L53.8901 41.17" stroke="#010101" stroke-width="0.03" stroke-miterlimit="10"/>
<path d="M52.3901 41.74L53.8901 41.63" stroke="#010101" stroke-width="0.03" stroke-miterlimit="10"/>
<path d="M52.3901 42.2L53.8901 42.09" stroke="#010101" stroke-width="0.03" stroke-miterlimit="10"/>
<path d="M52.3901 42.66L53.8901 42.55" stroke="#010101" stroke-width="0.03" stroke-miterlimit="10"/>
<path d="M52.3901 43.13L53.8901 43.01" stroke="#010101" stroke-width="0.03" stroke-miterlimit="10"/>
<path d="M52.3901 43.59L53.8901 43.47" stroke="#010101" stroke-width="0.03" stroke-miterlimit="10"/>
<path d="M52.6201 30.22L52.8501 43.59" stroke="#010101" stroke-width="0.03" stroke-miterlimit="10"/>
<path d="M53.1401 30.1L53.3701 43.59" stroke="#010101" stroke-width="0.03" stroke-miterlimit="10"/>
<path d="M52.22 43.95H38.96V44.33H52.22V43.95Z" fill="#1A1A1A"/>
<path d="M38.8501 44.68V44.91L52.2201 44.54V44.34L38.8501 44.68Z" fill="#B5B6B6"/>
<path d="M38.85 44.68L38.73 43.18" stroke="#010101" stroke-width="0.03" stroke-miterlimit="10"/>
<path d="M39.3099 44.68L39.1899 43.18" stroke="#010101" stroke-width="0.03" stroke-miterlimit="10"/>
<path d="M39.7699 44.68L39.6599 43.18" stroke="#010101" stroke-width="0.03" stroke-miterlimit="10"/>
<path d="M40.2299 44.68L40.1199 43.18" stroke="#010101" stroke-width="0.03" stroke-miterlimit="10"/>
<path d="M40.6901 44.68L40.5801 43.18" stroke="#010101" stroke-width="0.03" stroke-miterlimit="10"/>
<path d="M41.15 44.68L41.04 43.18" stroke="#010101" stroke-width="0.03" stroke-miterlimit="10"/>
<path d="M41.62 44.68L41.5 43.18" stroke="#010101" stroke-width="0.03" stroke-miterlimit="10"/>
<path d="M42.08 44.68L41.96 43.18" stroke="#010101" stroke-width="0.03" stroke-miterlimit="10"/>
<path d="M42.5399 44.68L42.4199 43.18" stroke="#010101" stroke-width="0.03" stroke-miterlimit="10"/>
<path d="M42.9999 44.68L42.8799 43.18" stroke="#010101" stroke-width="0.03" stroke-miterlimit="10"/>
<path d="M43.4601 44.68L43.3401 43.18" stroke="#010101" stroke-width="0.03" stroke-miterlimit="10"/>
<path d="M43.9201 44.68L43.8101 43.18" stroke="#010101" stroke-width="0.03" stroke-miterlimit="10"/>
<path d="M44.38 44.57L44.27 43.07" stroke="#010101" stroke-width="0.03" stroke-miterlimit="10"/>
<path d="M44.84 44.57L44.73 43.07" stroke="#010101" stroke-width="0.03" stroke-miterlimit="10"/>
<path d="M45.2999 44.57L45.1899 43.07" stroke="#010101" stroke-width="0.03" stroke-miterlimit="10"/>
<path d="M45.7599 44.57L45.6499 43.07" stroke="#010101" stroke-width="0.03" stroke-miterlimit="10"/>
<path d="M46.2299 44.57L46.1099 43.07" stroke="#010101" stroke-width="0.03" stroke-miterlimit="10"/>
<path d="M46.6901 44.57L46.5701 43.07" stroke="#010101" stroke-width="0.03" stroke-miterlimit="10"/>
<path d="M47.15 44.57L47.03 43.07" stroke="#010101" stroke-width="0.03" stroke-miterlimit="10"/>
<path d="M47.61 44.57L47.49 43.07" stroke="#010101" stroke-width="0.03" stroke-miterlimit="10"/>
<path d="M48.07 44.57L47.95 43.07" stroke="#010101" stroke-width="0.03" stroke-miterlimit="10"/>
<path d="M48.5299 44.57L48.4199 43.07" stroke="#010101" stroke-width="0.03" stroke-miterlimit="10"/>
<path d="M48.9899 44.57L48.8799 43.07" stroke="#010101" stroke-width="0.03" stroke-miterlimit="10"/>
<path d="M49.4501 44.57L49.3401 43.07" stroke="#010101" stroke-width="0.03" stroke-miterlimit="10"/>
<path d="M49.91 44.57L49.8 43.07" stroke="#010101" stroke-width="0.03" stroke-miterlimit="10"/>
<path d="M50.38 44.57L50.26 43.07" stroke="#010101" stroke-width="0.03" stroke-miterlimit="10"/>
<path d="M50.84 44.57L50.72 43.07" stroke="#010101" stroke-width="0.03" stroke-miterlimit="10"/>
<path d="M51.2999 44.57L51.1799 43.07" stroke="#010101" stroke-width="0.03" stroke-miterlimit="10"/>
<path d="M51.7599 44.57L51.6399 43.07" stroke="#010101" stroke-width="0.03" stroke-miterlimit="10"/>
<path d="M52.2201 44.57L52.1001 43.07" stroke="#010101" stroke-width="0.03" stroke-miterlimit="10"/>
<path d="M38.8501 44.34L52.2201 44.11" stroke="#010101" stroke-width="0.03" stroke-miterlimit="10"/>
<path d="M38.73 43.82L52.22 43.59" stroke="#010101" stroke-width="0.03" stroke-miterlimit="10"/>
<path d="M52.7399 44.86H52.3599V58.12H52.7399V44.86Z" fill="#1A1A1A"/>
<path d="M53.08 58.23H53.31L52.94 44.86H52.74L53.08 58.23Z" fill="#B5B6B6"/>
<path d="M53.0801 58.23L51.5901 58.34" stroke="#010101" stroke-width="0.03" stroke-miterlimit="10"/>
<path d="M53.0801 57.76L51.5901 57.88" stroke="#010101" stroke-width="0.03" stroke-miterlimit="10"/>
<path d="M53.0801 57.3L51.5901 57.42" stroke="#010101" stroke-width="0.03" stroke-miterlimit="10"/>
<path d="M53.0801 56.84L51.5901 56.96" stroke="#010101" stroke-width="0.03" stroke-miterlimit="10"/>
<path d="M53.0801 56.38L51.5901 56.5" stroke="#010101" stroke-width="0.03" stroke-miterlimit="10"/>
<path d="M53.0801 55.92L51.5901 56.04" stroke="#010101" stroke-width="0.03" stroke-miterlimit="10"/>
<path d="M53.0801 55.46L51.5901 55.57" stroke="#010101" stroke-width="0.03" stroke-miterlimit="10"/>
<path d="M53.0801 55L51.5901 55.11" stroke="#010101" stroke-width="0.03" stroke-miterlimit="10"/>
<path d="M53.0801 54.54L51.5901 54.65" stroke="#010101" stroke-width="0.03" stroke-miterlimit="10"/>
<path d="M53.0801 54.08L51.5901 54.19" stroke="#010101" stroke-width="0.03" stroke-miterlimit="10"/>
<path d="M53.0801 53.62L51.5901 53.73" stroke="#010101" stroke-width="0.03" stroke-miterlimit="10"/>
<path d="M53.0801 53.15L51.5901 53.27" stroke="#010101" stroke-width="0.03" stroke-miterlimit="10"/>
<path d="M52.97 52.69L51.47 52.81" stroke="#010101" stroke-width="0.03" stroke-miterlimit="10"/>
<path d="M52.97 52.23L51.47 52.35" stroke="#010101" stroke-width="0.03" stroke-miterlimit="10"/>
<path d="M52.97 51.77L51.47 51.89" stroke="#010101" stroke-width="0.03" stroke-miterlimit="10"/>
<path d="M52.97 51.31L51.47 51.43" stroke="#010101" stroke-width="0.03" stroke-miterlimit="10"/>
<path d="M52.97 50.85L51.47 50.96" stroke="#010101" stroke-width="0.03" stroke-miterlimit="10"/>
<path d="M52.97 50.39L51.47 50.5" stroke="#010101" stroke-width="0.03" stroke-miterlimit="10"/>
<path d="M52.97 49.93L51.47 50.04" stroke="#010101" stroke-width="0.03" stroke-miterlimit="10"/>
<path d="M52.97 49.47L51.47 49.58" stroke="#010101" stroke-width="0.03" stroke-miterlimit="10"/>
<path d="M52.97 49L51.47 49.12" stroke="#010101" stroke-width="0.03" stroke-miterlimit="10"/>
<path d="M52.97 48.54L51.47 48.66" stroke="#010101" stroke-width="0.03" stroke-miterlimit="10"/>
<path d="M52.97 48.08L51.47 48.2" stroke="#010101" stroke-width="0.03" stroke-miterlimit="10"/>
<path d="M52.97 47.62L51.47 47.74" stroke="#010101" stroke-width="0.03" stroke-miterlimit="10"/>
<path d="M52.97 47.16L51.47 47.28" stroke="#010101" stroke-width="0.03" stroke-miterlimit="10"/>
<path d="M52.97 46.7L51.47 46.81" stroke="#010101" stroke-width="0.03" stroke-miterlimit="10"/>
<path d="M52.97 46.24L51.47 46.35" stroke="#010101" stroke-width="0.03" stroke-miterlimit="10"/>
<path d="M52.97 45.78L51.47 45.89" stroke="#010101" stroke-width="0.03" stroke-miterlimit="10"/>
<path d="M52.97 45.32L51.47 45.43" stroke="#010101" stroke-width="0.03" stroke-miterlimit="10"/>
<path d="M52.97 44.86L51.47 44.97" stroke="#010101" stroke-width="0.03" stroke-miterlimit="10"/>
<path d="M52.74 58.23L52.51 44.86" stroke="#010101" stroke-width="0.03" stroke-miterlimit="10"/>
<path d="M52.22 58.34L51.99 44.86" stroke="#010101" stroke-width="0.03" stroke-miterlimit="10"/>
<path d="M26.3 63.86C26.66 63.59 26.9 63.17 26.9 62.7C26.9 62.01 26.4 61.43 25.72 61.27C25.9 61.03 26 60.74 26 60.42C26 59.61 25.3 58.95 24.44 58.95C23.71 58.95 23.1 59.42 22.93 60.06C22.71 59.95 22.46 59.88 22.19 59.88C21.33 59.88 20.63 60.54 20.63 61.35C20.63 61.67 20.74 61.96 20.91 62.2C20.68 62.46 20.54 62.79 20.54 63.16C20.54 63.57 20.71 63.93 20.99 64.2C20.89 64.32 20.84 64.44 20.84 64.57C20.84 65.23 22.2 65.76 23.87 65.76C25.54 65.76 26.9 65.23 26.9 64.57C26.9 64.3 26.68 64.06 26.3 63.86Z" fill="#5E632A" stroke="#010101" stroke-width="0.23" stroke-miterlimit="10"/>
<path d="M21.5501 61.59C21.7931 61.59 21.9901 61.393 21.9901 61.15C21.9901 60.907 21.7931 60.71 21.5501 60.71C21.3071 60.71 21.1101 60.907 21.1101 61.15C21.1101 61.393 21.3071 61.59 21.5501 61.59Z" fill="white" stroke="#010101" stroke-width="0.09" stroke-miterlimit="10"/>
<path d="M24.43 62.63C24.673 62.63 24.87 62.433 24.87 62.19C24.87 61.947 24.673 61.75 24.43 61.75C24.187 61.75 23.99 61.947 23.99 62.19C23.99 62.433 24.187 62.63 24.43 62.63Z" fill="white" stroke="#010101" stroke-width="0.09" stroke-miterlimit="10"/>
<path d="M23.0501 62.06C23.2931 62.06 23.4901 61.863 23.4901 61.62C23.4901 61.377 23.2931 61.18 23.0501 61.18C22.8071 61.18 22.6101 61.377 22.6101 61.62C22.6101 61.863 22.8071 62.06 23.0501 62.06Z" fill="white" stroke="#010101" stroke-width="0.09" stroke-miterlimit="10"/>
<path d="M21.67 63.67C21.913 63.67 22.11 63.473 22.11 63.23C22.11 62.987 21.913 62.79 21.67 62.79C21.427 62.79 21.23 62.987 21.23 63.23C21.23 63.473 21.427 63.67 21.67 63.67Z" fill="white" stroke="#010101" stroke-width="0.09" stroke-miterlimit="10"/>
<path d="M23.5101 63.9C23.7531 63.9 23.9501 63.703 23.9501 63.46C23.9501 63.217 23.7531 63.02 23.5101 63.02C23.2671 63.02 23.0701 63.217 23.0701 63.46C23.0701 63.703 23.2671 63.9 23.5101 63.9Z" fill="white" stroke="#010101" stroke-width="0.09" stroke-miterlimit="10"/>
<path d="M25.8201 63.21C26.0631 63.21 26.2601 63.013 26.2601 62.77C26.2601 62.527 26.0631 62.33 25.8201 62.33C25.5771 62.33 25.3801 62.527 25.3801 62.77C25.3801 63.013 25.5771 63.21 25.8201 63.21Z" fill="white" stroke="#010101" stroke-width="0.09" stroke-miterlimit="10"/>
<path d="M24.8899 64.59C25.133 64.59 25.33 64.393 25.33 64.15C25.33 63.907 25.133 63.71 24.8899 63.71C24.6469 63.71 24.45 63.907 24.45 64.15C24.45 64.393 24.6469 64.59 24.8899 64.59Z" fill="white" stroke="#010101" stroke-width="0.09" stroke-miterlimit="10"/>
<path d="M25.24 60.79C25.4831 60.79 25.68 60.593 25.68 60.35C25.68 60.107 25.4831 59.91 25.24 59.91C24.997 59.91 24.8 60.107 24.8 60.35C24.8 60.593 24.997 60.79 25.24 60.79Z" fill="white" stroke="#010101" stroke-width="0.09" stroke-miterlimit="10"/>
<path d="M23.7901 60.59C24.0331 60.59 24.2301 60.393 24.2301 60.15C24.2301 59.907 24.0331 59.71 23.7901 59.71C23.5471 59.71 23.3501 59.907 23.3501 60.15C23.3501 60.393 23.5471 60.59 23.7901 60.59Z" fill="white" stroke="#010101" stroke-width="0.09" stroke-miterlimit="10"/>
<path d="M64.6001 54.85C64.9601 54.58 65.2001 54.16 65.2001 53.69C65.2001 53 64.7001 52.42 64.0201 52.26C64.2001 52.02 64.3001 51.73 64.3001 51.41C64.3001 50.6 63.6001 49.94 62.7401 49.94C62.0101 49.94 61.4001 50.41 61.2301 51.05C61.0101 50.94 60.7601 50.87 60.4901 50.87C59.6301 50.87 58.9301 51.53 58.9301 52.34C58.9301 52.66 59.0401 52.95 59.2101 53.19C58.9801 53.45 58.8401 53.78 58.8401 54.15C58.8401 54.56 59.0101 54.92 59.2901 55.19C59.1901 55.31 59.1401 55.43 59.1401 55.56C59.1401 56.22 60.5001 56.75 62.1701 56.75C63.8401 56.75 65.2001 56.22 65.2001 55.56C65.2001 55.29 64.9801 55.05 64.6001 54.85Z" fill="#5E632A" stroke="#010101" stroke-width="0.23" stroke-miterlimit="10"/>
<path d="M59.8502 52.58C60.0932 52.58 60.2902 52.383 60.2902 52.14C60.2902 51.897 60.0932 51.7 59.8502 51.7C59.6071 51.7 59.4102 51.897 59.4102 52.14C59.4102 52.383 59.6071 52.58 59.8502 52.58Z" fill="white" stroke="#010101" stroke-width="0.09" stroke-miterlimit="10"/>
<path d="M62.7401 53.62C62.9831 53.62 63.18 53.423 63.18 53.18C63.18 52.937 62.9831 52.74 62.7401 52.74C62.497 52.74 62.3 52.937 62.3 53.18C62.3 53.423 62.497 53.62 62.7401 53.62Z" fill="white" stroke="#010101" stroke-width="0.09" stroke-miterlimit="10"/>
<path d="M61.3502 53.04C61.5932 53.04 61.7902 52.843 61.7902 52.6C61.7902 52.357 61.5932 52.16 61.3502 52.16C61.1071 52.16 60.9102 52.357 60.9102 52.6C60.9102 52.843 61.1071 53.04 61.3502 53.04Z" fill="white" stroke="#010101" stroke-width="0.09" stroke-miterlimit="10"/>
<path d="M59.97 54.66C60.213 54.66 60.41 54.463 60.41 54.22C60.41 53.977 60.213 53.78 59.97 53.78C59.727 53.78 59.53 53.977 59.53 54.22C59.53 54.463 59.727 54.66 59.97 54.66Z" fill="white" stroke="#010101" stroke-width="0.09" stroke-miterlimit="10"/>
<path d="M61.8101 54.89C62.0531 54.89 62.2501 54.693 62.2501 54.45C62.2501 54.207 62.0531 54.01 61.8101 54.01C61.5671 54.01 61.3701 54.207 61.3701 54.45C61.3701 54.693 61.5671 54.89 61.8101 54.89Z" fill="white" stroke="#010101" stroke-width="0.09" stroke-miterlimit="10"/>
<path d="M64.1202 54.2C64.3632 54.2 64.5602 54.003 64.5602 53.76C64.5602 53.517 64.3632 53.32 64.1202 53.32C63.8772 53.32 63.6802 53.517 63.6802 53.76C63.6802 54.003 63.8772 54.2 64.1202 54.2Z" fill="white" stroke="#010101" stroke-width="0.09" stroke-miterlimit="10"/>
<path d="M63.2 55.58C63.443 55.58 63.64 55.383 63.64 55.14C63.64 54.897 63.443 54.7 63.2 54.7C62.957 54.7 62.76 54.897 62.76 55.14C62.76 55.383 62.957 55.58 63.2 55.58Z" fill="white" stroke="#010101" stroke-width="0.09" stroke-miterlimit="10"/>
<path d="M63.5401 51.77C63.7831 51.77 63.9801 51.573 63.9801 51.33C63.9801 51.087 63.7831 50.89 63.5401 50.89C63.2971 50.89 63.1001 51.087 63.1001 51.33C63.1001 51.573 63.2971 51.77 63.5401 51.77Z" fill="white" stroke="#010101" stroke-width="0.09" stroke-miterlimit="10"/>
<path d="M62.0901 51.57C62.3332 51.57 62.5301 51.373 62.5301 51.13C62.5301 50.887 62.3332 50.69 62.0901 50.69C61.8471 50.69 61.6501 50.887 61.6501 51.13C61.6501 51.373 61.8471 51.57 62.0901 51.57Z" fill="white" stroke="#010101" stroke-width="0.09" stroke-miterlimit="10"/>
<path d="M52.5301 58.09C53.1701 57.61 53.5801 56.88 53.5801 56.05C53.5801 54.83 52.6901 53.81 51.5001 53.53C51.8201 53.11 52.0001 52.59 52.0001 52.03C52.0001 50.59 50.7701 49.43 49.2501 49.43C47.9701 49.43 46.8901 50.26 46.5801 51.38C46.1901 51.18 45.7401 51.07 45.2701 51.07C43.7501 51.07 42.5201 52.23 42.5201 53.67C42.5201 54.23 42.7101 54.74 43.0201 55.17C42.6101 55.62 42.3601 56.21 42.3601 56.86C42.3601 57.58 42.6701 58.22 43.1601 58.7C42.9901 58.91 42.8901 59.13 42.8901 59.36C42.8901 60.52 45.2801 61.47 48.2301 61.47C51.1801 61.47 53.5701 60.53 53.5701 59.36C53.5701 58.89 53.1801 58.45 52.5201 58.1L52.5301 58.09Z" fill="#5E632A" stroke="#010101" stroke-width="0.41" stroke-miterlimit="10"/>
<path d="M44.1601 54.08C44.5854 54.08 44.9301 53.7353 44.9301 53.31C44.9301 52.8847 44.5854 52.54 44.1601 52.54C43.7349 52.54 43.3901 52.8847 43.3901 53.31C43.3901 53.7353 43.7349 54.08 44.1601 54.08Z" fill="white" stroke="#010101" stroke-width="0.15" stroke-miterlimit="10"/>
<path d="M49.2402 55.91C49.6655 55.91 50.0102 55.5653 50.0102 55.14C50.0102 54.7147 49.6655 54.37 49.2402 54.37C48.815 54.37 48.4702 54.7147 48.4702 55.14C48.4702 55.5653 48.815 55.91 49.2402 55.91Z" fill="white" stroke="#010101" stroke-width="0.15" stroke-miterlimit="10"/>
<path d="M46.8 54.89C47.2253 54.89 47.57 54.5453 47.57 54.12C47.57 53.6947 47.2253 53.35 46.8 53.35C46.3748 53.35 46.03 53.6947 46.03 54.12C46.03 54.5453 46.3748 54.89 46.8 54.89Z" fill="white" stroke="#010101" stroke-width="0.15" stroke-miterlimit="10"/>
<path d="M44.3601 57.74C44.7853 57.74 45.1301 57.3953 45.1301 56.97C45.1301 56.5447 44.7853 56.2 44.3601 56.2C43.9348 56.2 43.5901 56.5447 43.5901 56.97C43.5901 57.3953 43.9348 57.74 44.3601 57.74Z" fill="white" stroke="#010101" stroke-width="0.15" stroke-miterlimit="10"/>
<path d="M47.6201 58.15C48.0454 58.15 48.3901 57.8053 48.3901 57.38C48.3901 56.9547 48.0454 56.61 47.6201 56.61C47.1948 56.61 46.8501 56.9547 46.8501 57.38C46.8501 57.8053 47.1948 58.15 47.6201 58.15Z" fill="white" stroke="#010101" stroke-width="0.15" stroke-miterlimit="10"/>
<path d="M51.6902 56.93C52.1154 56.93 52.4602 56.5853 52.4602 56.16C52.4602 55.7347 52.1154 55.39 51.6902 55.39C51.2649 55.39 50.9202 55.7347 50.9202 56.16C50.9202 56.5853 51.2649 56.93 51.6902 56.93Z" fill="white" stroke="#010101" stroke-width="0.15" stroke-miterlimit="10"/>
<path d="M50.06 59.37C50.4853 59.37 50.83 59.0253 50.83 58.6C50.83 58.1747 50.4853 57.83 50.06 57.83C49.6348 57.83 49.29 58.1747 49.29 58.6C49.29 59.0253 49.6348 59.37 50.06 59.37Z" fill="white" stroke="#010101" stroke-width="0.15" stroke-miterlimit="10"/>
<path d="M50.6701 52.65C51.0954 52.65 51.4401 52.3053 51.4401 51.88C51.4401 51.4547 51.0954 51.11 50.6701 51.11C50.2449 51.11 49.9001 51.4547 49.9001 51.88C49.9001 52.3053 50.2449 52.65 50.6701 52.65Z" fill="white" stroke="#010101" stroke-width="0.15" stroke-miterlimit="10"/>
<path d="M48.1001 52.3C48.5253 52.3 48.8701 51.9553 48.8701 51.53C48.8701 51.1047 48.5253 50.76 48.1001 50.76C47.6748 50.76 47.3301 51.1047 47.3301 51.53C47.3301 51.9553 47.6748 52.3 48.1001 52.3Z" fill="white" stroke="#010101" stroke-width="0.15" stroke-miterlimit="10"/>
<path d="M34.28 48.91C34.48 48.39 34.59 47.84 34.59 47.25C34.59 44.69 32.51 42.61 29.95 42.61C27.39 42.61 25.31 44.69 25.31 47.25C25.31 47.52 25.34 47.78 25.38 48.04C23.73 48.54 22.52 50.07 22.52 51.89C22.52 54.11 24.32 55.91 26.54 55.91C27.8 55.91 28.92 55.33 29.66 54.42C30.28 55.84 31.7 56.83 33.34 56.83C35.56 56.83 37.36 55.03 37.36 52.81C37.36 50.91 36.04 49.32 34.27 48.9L34.28 48.91Z" fill="#35361A" stroke="#010101" stroke-width="0.41" stroke-miterlimit="10"/>
<path d="M27.1401 64.26C27.1401 64.26 29.3101 59.93 29.0001 57.46C28.6901 54.99 27.4501 52.51 27.4501 52.51L29.0301 53.15V51.89L29.9301 52.82L31.5501 51.89L31.1701 53.44L32.7201 53.13C32.7201 53.13 31.1701 54.37 31.1701 57.77C31.1701 61.17 32.4401 64.27 32.4401 64.27H27.1501L27.1401 64.26Z" fill="#5F4021" stroke="#010101" stroke-width="0.41" stroke-miterlimit="10"/>
<path d="M42.8899 50.3C43.1399 49.64 43.2899 48.93 43.2899 48.19C43.2899 44.93 40.6399 42.28 37.3799 42.28C34.1199 42.28 31.4699 44.93 31.4699 48.19C31.4699 48.53 31.5099 48.87 31.5599 49.2C29.4499 49.84 27.9199 51.79 27.9199 54.1C27.9199 56.93 30.2099 59.22 33.0399 59.22C34.6399 59.22 36.0799 58.48 37.0199 57.33C37.8099 59.14 39.6099 60.41 41.7099 60.41C44.5399 60.41 46.8299 58.12 46.8299 55.29C46.8299 52.87 45.1499 50.84 42.8899 50.31V50.3Z" fill="#5E632A" stroke="#010101" stroke-width="0.52" stroke-miterlimit="10"/>
<path d="M33.79 69.86C33.79 69.86 36.55 64.34 36.15 61.19C35.75 58.04 34.18 54.88 34.18 54.88L36.19 55.69V54.09L37.33 55.28L39.39 54.09L38.9 56.06L40.87 55.67C40.87 55.67 38.9 57.25 38.9 61.58C38.9 65.91 40.52 69.86 40.52 69.86H33.77H33.79Z" fill="#9D6427" stroke="#010101" stroke-width="0.52" stroke-miterlimit="10"/>
<path d="M54.2901 66.26H28.5601V75.22H54.2901V66.26Z" fill="#4D423E" stroke="#010101" stroke-width="0.13" stroke-miterlimit="10"/>
<path d="M54.2901 66.26H28.5601L28.5901 51.46H54.2801L54.2901 66.26Z" fill="#353635" stroke="#010101" stroke-width="0.13" stroke-miterlimit="10"/>
<path d="M48.8701 61.38L41.9501 48.88V46.27H39.9701V48.92L33.2101 61.38H31.8901L33.2101 64.2V75.17H48.8701V64.2L50.1901 61.38H48.8701Z" fill="#4D423E" stroke="#010101" stroke-width="0.13" stroke-miterlimit="10"/>
<path d="M44.13 56.16H41.45V59.7H44.13V56.16Z" fill="#7CA1AF" stroke="#E6E6E5" stroke-width="0.38" stroke-miterlimit="10"/>
<path d="M40.5101 56.16H37.8301V59.7H40.5101V56.16Z" fill="#7CA1AF" stroke="#E6E6E5" stroke-width="0.38" stroke-miterlimit="10"/>
<path d="M38.2199 66.46H34.9399V71.32H38.2199V66.46Z" fill="#7CA1AF" stroke="#E6E6E5" stroke-width="0.38" stroke-miterlimit="10"/>
<path d="M42.7199 66.46H39.4399V71.32H42.7199V66.46Z" fill="#7CA1AF" stroke="#E6E6E5" stroke-width="0.38" stroke-miterlimit="10"/>
<path d="M47.1001 66.46H43.8201V71.32H47.1001V66.46Z" fill="#7CA1AF" stroke="#E6E6E5" stroke-width="0.38" stroke-miterlimit="10"/>
<path d="M91.3199 70.93H49.4299V85.08H91.3199V70.93Z" fill="#DCDBDB"/>
<path d="M91.3199 71.01L91.2999 57.91H49.4799L49.4299 71.01H49.4499L49.4299 75.16H68.7299L68.7199 71.01H91.3199Z" fill="#353635" stroke="#010101" stroke-width="0.14" stroke-miterlimit="10"/>
<path d="M82.72 76.15H80.48V81.59H82.72V76.15Z" fill="#7CA1AF" stroke="#3A3B3A" stroke-width="0.43" stroke-miterlimit="10"/>
<path d="M84.9299 76.15H82.6899V81.59H84.9299V76.15Z" fill="#7CA1AF" stroke="#3A3B3A" stroke-width="0.43" stroke-miterlimit="10"/>
<path d="M84.94 74.23H80.48V76.16H84.94V74.23Z" fill="#7CA1AF" stroke="#3A3B3A" stroke-width="0.43" stroke-miterlimit="10"/>
<path d="M77.28 76.15H75.04V81.59H77.28V76.15Z" fill="#7CA1AF" stroke="#3A3B3A" stroke-width="0.43" stroke-miterlimit="10"/>
<path d="M79.5 76.15H77.26V81.59H79.5V76.15Z" fill="#7CA1AF" stroke="#3A3B3A" stroke-width="0.43" stroke-miterlimit="10"/>
<path d="M79.5 74.23H75.04V76.16H79.5V74.23Z" fill="#7CA1AF" stroke="#3A3B3A" stroke-width="0.43" stroke-miterlimit="10"/>
<path d="M89.5299 74.23H85.6699V81.67H89.5299V74.23Z" fill="#3A3B3A"/>
<path d="M74.2899 74.3H70.4299V81.74H74.2899V74.3Z" fill="#3A3B3A"/>
<path d="M52.26 55.27H50.26V57.85H52.26V55.27Z" fill="#DCDBDB"/>
<path d="M90.75 55.27H88.75V57.85H90.75V55.27Z" fill="#DCDBDB"/>
<path d="M68.59 64.74H65.71V67.93H68.59V64.74Z" fill="#7CA1AF" stroke="#3A3B3A" stroke-width="0.43" stroke-miterlimit="10"/>
<path d="M74.5099 64.74H71.6299V67.93H74.5099V64.74Z" fill="#7CA1AF" stroke="#3A3B3A" stroke-width="0.43" stroke-miterlimit="10"/>
<path d="M71.4698 64.74H68.5898V67.93H71.4698V64.74Z" fill="#7CA1AF" stroke="#3A3B3A" stroke-width="0.43" stroke-miterlimit="10"/>
<path d="M74.94 61.78H65.21V64.78H74.94V61.78Z" fill="#353635" stroke="#010101" stroke-width="0.14" stroke-miterlimit="10"/>
<path d="M50.3998 75.01H49.8298V85.17H50.3998V75.01Z" fill="#3A3B3A"/>
<path d="M67.4299 75.01H66.8599V85.17H67.4299V75.01Z" fill="#3A3B3A"/>
<path d="M54.3398 76.54H53.0598V79.09H54.3398V76.54Z" fill="#7CA1AF" stroke="#3A3B3A" stroke-width="0.43" stroke-miterlimit="10"/>
<path d="M52.54 76.3H50.97V79.3H52.54V76.3Z" fill="#3A3B3A"/>
<path d="M63.0099 75.48H58.1599V85.1H63.0099V75.48Z" fill="#353635" stroke="#010101" stroke-width="0.14" stroke-miterlimit="10"/>
<path d="M60.0799 80.87H58.9199V82.03H60.0799V80.87Z" fill="#7CA1AF" stroke="#3A3B3A" stroke-width="0.29" stroke-miterlimit="10"/>
<path d="M61.2398 80.87H60.0798V82.03H61.2398V80.87Z" fill="#7CA1AF" stroke="#3A3B3A" stroke-width="0.29" stroke-miterlimit="10"/>
<path d="M62.4 80.87H61.24V82.03H62.4V80.87Z" fill="#7CA1AF" stroke="#3A3B3A" stroke-width="0.29" stroke-miterlimit="10"/>
<path d="M60.0799 79.71H58.9199V80.87H60.0799V79.71Z" fill="#7CA1AF" stroke="#3A3B3A" stroke-width="0.29" stroke-miterlimit="10"/>
<path d="M61.2398 79.71H60.0798V80.87H61.2398V79.71Z" fill="#7CA1AF" stroke="#3A3B3A" stroke-width="0.29" stroke-miterlimit="10"/>
<path d="M62.4 79.71H61.24V80.87H62.4V79.71Z" fill="#7CA1AF" stroke="#3A3B3A" stroke-width="0.29" stroke-miterlimit="10"/>
<path d="M60.0799 78.08H58.9199V79.78H60.0799V78.08Z" fill="#7CA1AF" stroke="#3A3B3A" stroke-width="0.29" stroke-miterlimit="10"/>
<path d="M61.2398 78.08H60.0798V79.78H61.2398V78.08Z" fill="#7CA1AF" stroke="#3A3B3A" stroke-width="0.29" stroke-miterlimit="10"/>
<path d="M62.4 78.08H61.24V79.78H62.4V78.08Z" fill="#7CA1AF" stroke="#3A3B3A" stroke-width="0.29" stroke-miterlimit="10"/>
<path d="M60.5298 77.54V76.6C60.5298 76.6 60.0698 76.6 59.7998 76.74C59.5298 76.88 59.3398 77.1 59.3398 77.1L60.0698 77.68C60.0698 77.68 60.3398 77.54 60.4398 77.54H60.5298Z" fill="#7CA1AF" stroke="#3A3B3A" stroke-width="0.29" stroke-miterlimit="10"/>
<path d="M59.3399 77.11C59.3399 77.11 59.0699 77.33 58.9699 77.54C58.8699 77.75 58.8799 77.9 58.8799 77.9H59.8899C59.8899 77.9 60.0699 77.68 60.1599 77.68L59.3399 77.1V77.11Z" fill="#7CA1AF" stroke="#3A3B3A" stroke-width="0.29" stroke-linejoin="bevel"/>
<path d="M60.72 77.54V76.6C60.72 76.6 61.18 76.6 61.45 76.74C61.72 76.88 61.91 77.1 61.91 77.1L61.18 77.68C61.18 77.68 60.91 77.54 60.81 77.54H60.72Z" fill="#7CA1AF" stroke="#3A3B3A" stroke-width="0.29" stroke-miterlimit="10"/>
<path d="M61.8998 77.11C61.8998 77.11 62.1698 77.33 62.2698 77.54C62.3698 77.75 62.3598 77.9 62.3598 77.9H61.3498C61.3498 77.9 61.1698 77.68 61.0798 77.68L61.8998 77.1V77.11Z" fill="#7CA1AF" stroke="#3A3B3A" stroke-width="0.29" stroke-linejoin="bevel"/>
<path d="M64.4998 75.52H63.0498V85.14H64.4998V75.52Z" fill="#7CA1AF" stroke="#3A3B3A" stroke-width="0.29" stroke-miterlimit="10"/>
<path d="M2.61003 86.1C2.61003 86.1 6.02003 88.12 8.06003 89.22C10.1 90.32 12.91 91.06 12.91 91.06C12.91 91.06 9.12003 93.08 6.59003 93.16C5.47003 93.19 1.53003 93.07 1.53003 93.07C1.53003 93.07 3.67003 94.62 7.42003 95.48C13.24 96.82 20.62 93.38 23.6 93.38C26.58 93.38 38.18 92.99 38.18 92.99L39.4 85.59C39.4 85.59 39.88 82.99 32.85 82.99C25.82 82.99 22.4 86.06 17.76 87.28C13.12 88.5 2.62003 86.1 2.62003 86.1H2.61003Z" fill="white" stroke="#231F20" stroke-width="0.87" stroke-miterlimit="10"/>
<path d="M38.7601 86.64C38.7601 86.64 35.7201 85.7 32.5701 86.31C29.4201 86.92 26.0901 88.92 26.0901 88.92C26.0901 88.92 28.2001 91.78 32.8901 92.17C37.5801 92.56 38.7501 92.17 38.7501 92.17V86.64H38.7601Z" fill="#B3B3B3" stroke="#231F20" stroke-width="0.87" stroke-miterlimit="10"/>
<path d="M132.24 86.1C132.24 86.1 128.83 88.12 126.79 89.22C124.75 90.32 121.94 91.06 121.94 91.06C121.94 91.06 125.73 93.08 128.26 93.16C129.38 93.19 133.32 93.07 133.32 93.07C133.32 93.07 131.18 94.62 127.43 95.48C121.61 96.82 114.23 93.38 111.25 93.38C108.27 93.38 96.67 92.99 96.67 92.99L95.45 85.59C95.45 85.59 94.97 82.99 102 82.99C109.03 82.99 112.45 86.06 117.09 87.28C121.73 88.5 132.23 86.1 132.23 86.1H132.24Z" fill="white" stroke="#231F20" stroke-width="0.87" stroke-miterlimit="10"/>
<path d="M96.1001 86.64C96.1001 86.64 99.1401 85.7 102.29 86.31C105.44 86.92 108.77 88.92 108.77 88.92C108.77 88.92 106.66 91.78 101.97 92.17C97.2801 92.56 96.1101 92.17 96.1101 92.17V86.64H96.1001Z" fill="#B3B3B3" stroke="#231F20" stroke-width="0.87" stroke-miterlimit="10"/>
<path d="M108.76 88.92C108.76 88.92 104.63 93.37 95.3699 92.44C86.1099 91.51 80.1499 83.8 69.0399 83.59H65.8199C54.7099 83.8 48.7499 91.51 39.4899 92.44C30.2299 93.37 26.0999 88.92 26.0999 88.92L23.4399 98.82C23.4399 98.82 27.6599 103.76 37.0199 103.45C46.3799 103.14 59.4399 94.09 66.1799 93.99H68.6799C75.4199 94.09 88.4799 103.14 97.8399 103.45C107.2 103.76 111.42 98.82 111.42 98.82L108.76 88.92Z" fill="white" stroke="#231F20" stroke-width="0.87" stroke-miterlimit="10"/>
<path d="M44.4099 93.75C44.4099 93.75 44.6299 92.46 45.3199 92.84C46.0099 93.22 47.6099 97.24 46.9199 98.19C46.2299 99.14 44.8099 100.18 44.8099 100.18" fill="white"/>
<path d="M44.4099 93.75C44.4099 93.75 44.6299 92.46 45.3199 92.84C46.0099 93.22 47.6099 97.24 46.9199 98.19C46.2299 99.14 44.8099 100.18 44.8099 100.18" stroke="#231F20" stroke-width="0.87" stroke-miterlimit="10"/>
<path d="M49.16 94.18L46.05 96.12" stroke="#231F20" stroke-width="0.87" stroke-miterlimit="10"/>
<path d="M48.25 91.33C48.25 91.33 48.9 94.26 49.46 95.47C50.02 96.68 50.8 97.84 50.8 97.84" fill="white"/>
<path d="M48.25 91.33C48.25 91.33 48.9 94.26 49.46 95.47C50.02 96.68 50.8 97.84 50.8 97.84" stroke="#231F20" stroke-width="0.87" stroke-miterlimit="10"/>
<path d="M50.8 94.18C50.8 94.18 53.04 93.49 52.66 92.15C52.28 90.81 50.63 91.7 50.33 92.77C50.03 93.84 50.59 95.8 52.49 95.79C54.39 95.78 54.6 93.28 54.6 93.28" fill="white"/>
<path d="M50.8 94.18C50.8 94.18 53.04 93.49 52.66 92.15C52.28 90.81 50.63 91.7 50.33 92.77C50.03 93.84 50.59 95.8 52.49 95.79C54.39 95.78 54.6 93.28 54.6 93.28" stroke="#231F20" stroke-width="0.87" stroke-miterlimit="10"/>
<path d="M56.1501 93.63C56.8001 92.69 54.6001 89.78 54.6001 89.78L58.7001 92.54C58.7001 92.54 56.6701 90.6 56.8901 88.91L57.1101 87.23" fill="white"/>
<path d="M56.1501 93.63C56.8001 92.69 54.6001 89.78 54.6001 89.78L58.7001 92.54C58.7001 92.54 56.6701 90.6 56.8901 88.91L57.1101 87.23" stroke="#231F20" stroke-width="0.87" stroke-miterlimit="10"/>
<path d="M59.3901 93.92C60.4701 93.06 60.1201 91.85 60.1201 91.33C60.1201 90.81 59.3901 88.27 59.3901 88.27C59.3901 88.27 59.8601 86.98 61.2501 86.98C62.6401 86.98 63.3601 88.72 62.7201 89.23C62.0801 89.74 60.4301 90.26 60.4301 90.26C60.4301 90.26 62.1101 91.21 63.3201 91.34C64.5301 91.47 65.1301 91.34 65.1301 91.34" fill="white"/>
<path d="M59.3901 93.92C60.4701 93.06 60.1201 91.85 60.1201 91.33C60.1201 90.81 59.3901 88.27 59.3901 88.27C59.3901 88.27 59.8601 86.98 61.2501 86.98C62.6401 86.98 63.3601 88.72 62.7201 89.23C62.0801 89.74 60.4301 90.26 60.4301 90.26C60.4301 90.26 62.1101 91.21 63.3201 91.34C64.5301 91.47 65.1301 91.34 65.1301 91.34" stroke="#231F20" stroke-width="0.87" stroke-miterlimit="10"/>
<path d="M65.54 85.96L67.74 85.89" stroke="#231F20" stroke-width="0.87" stroke-miterlimit="10"/>
<path d="M66.9601 91.44L66.6201 86.12" stroke="#231F20" stroke-width="0.87" stroke-miterlimit="10"/>
<path d="M65.8601 91.46L67.9001 91.36" stroke="#231F20" stroke-width="0.87" stroke-miterlimit="10"/>
<path d="M73.84 86.97C73.84 86.97 72.92 85.04 70.87 85.91C68.82 86.78 69.14 89.93 70.06 90.78C70.98 91.63 72.15 91.95 73.38 91.33" fill="white"/>
<path d="M73.84 86.97C73.84 86.97 72.92 85.04 70.87 85.91C68.82 86.78 69.14 89.93 70.06 90.78C70.98 91.63 72.15 91.95 73.38 91.33" stroke="#231F20" stroke-width="0.87" stroke-miterlimit="10"/>
<path d="M76.0601 87.23L75.0001 91.57C75.0001 91.57 74.9601 92.44 76.7301 93.03C78.5001 93.62 78.6001 92.24 78.6001 92.24L79.7001 88.35" fill="white"/>
<path d="M76.0601 87.23L75.0001 91.57C75.0001 91.57 74.9601 92.44 76.7301 93.03C78.5001 93.62 78.6001 92.24 78.6001 92.24L79.7001 88.35" stroke="#231F20" stroke-width="0.87" stroke-miterlimit="10"/>
<path d="M85.46 91.31C85.46 91.31 84.79 89.61 83.13 89.83C81.47 90.05 82.53 91.77 83.38 92.8C84.23 93.83 85.29 95.14 84.41 95.79C83.53 96.44 81.62 95.74 80.49 95.79C79.36 95.84 76.71 94.82 76.71 94.82" fill="white"/>
<path d="M85.46 91.31C85.46 91.31 84.79 89.61 83.13 89.83C81.47 90.05 82.53 91.77 83.38 92.8C84.23 93.83 85.29 95.14 84.41 95.79C83.53 96.44 81.62 95.74 80.49 95.79C79.36 95.84 76.71 94.82 76.71 94.82" stroke="#231F20" stroke-width="0.87" stroke-miterlimit="10"/>
<path d="M82.28 94.27L82.59 97.25" stroke="#231F20" stroke-width="0.87" stroke-miterlimit="10"/>
<path d="M80.6501 94.27L80.7901 96.97" stroke="#231F20" stroke-width="0.87" stroke-miterlimit="10"/>
</g>
<defs>
<clipPath id="clip0_1_2269">
<rect width="134.85" height="103.9" fill="white"/>
</clipPath>
</defs>
</svg>
