<svg width="188" height="188" viewBox="0 0 188 188" fill="none" xmlns="http://www.w3.org/2000/svg">
<g clip-path="url(#clip0_29_32)">
<path d="M94 188C145.916 188 188 145.981 188 94.1469H0C0 145.981 42.0843 188 94 188Z" fill="#9297C4"/>
<path d="M94 0C42.0843 0 0 42.0186 0 93.8532H188C188 42.0186 145.916 0 94 0Z" fill="#0A1252"/>
<path d="M94 111.108C103.382 111.108 110.988 103.514 110.988 94.1468C110.988 84.7794 103.382 77.1855 94 77.1855C84.6179 77.1855 77.0122 84.7794 77.0122 94.1468C77.0122 103.514 84.6179 111.108 94 111.108Z" fill="#C8CBE7"/>
</g>
<defs>
<clipPath id="clip0_29_32">
<rect width="188" height="188" fill="white"/>
</clipPath>
</defs>
</svg>
