<svg width="238" height="94" viewBox="0 0 238 94" fill="none" xmlns="http://www.w3.org/2000/svg">
<path d="M25.8294 6.61509C18.3806 11.581 7.41426 38.4795 2.8622 51.308C2.24147 55.0324 1 63.8469 1 69.3093C1 74.7718 6.79353 79.448 9.69029 81.1033H237.5V1.02848H56.2454C49.2104 0.821563 33.2782 1.64921 25.8294 6.61509Z" fill="#9297C4" stroke="#9297C4"/>
<path d="M28.9331 41.9686H40.1063V15.8977C38.451 15.277 34.6438 14.0355 32.6575 14.0355C30.6711 14.0355 26.8639 9.48343 25.2086 7.2074C23.3464 8.24196 18.3806 12.6699 13.4147 22.105C8.4488 31.5402 4.31056 45.8999 2.86218 51.9003H15.2769C16.1045 51.4865 18.3806 50.4105 20.8635 49.4174C23.3464 48.4242 27.2778 44.0377 28.9331 41.9686Z" fill="#0A1252" stroke="#9297C4"/>
<rect x="43.21" y="17.1392" width="50.9003" height="26.0709" fill="#0A1252"/>
<rect x="135.079" y="17.1392" width="50.9003" height="26.0709" fill="#0A1252"/>
<rect x="221.982" y="17.1392" width="11.1732" height="26.0709" fill="#0A1252"/>
<rect x="204.601" y="16.5183" width="16.1391" height="44.6929" fill="#0A1252"/>
<rect x="187.22" y="16.5183" width="16.1391" height="44.6929" fill="#0A1252"/>
<circle cx="48.7966" cy="87.9029" r="5.58661" fill="#0A1252"/>
<circle cx="62.4527" cy="87.9029" r="5.58661" fill="#0A1252"/>
<circle cx="76.109" cy="87.9029" r="5.58661" fill="#0A1252"/>
</svg>
